Coordinates
version=1
nRows=26
nColumns=24
inDegrees=yes

Units are S.I. units (second, meters, Newtons, ...)
Angles are in degrees.

endheader
time	pelvis_tilt	pelvis_list	pelvis_rotation	pelvis_tx	pelvis_ty	pelvis_tz	hip_flexion_r	hip_adduction_r	hip_rotation_r	knee_angle_r	ankle_angle_r	subtalar_angle_r	mtp_angle_r	hip_flexion_l	hip_adduction_l	hip_rotation_l	knee_angle_l	ankle_angle_l	subtalar_angle_l	mtp_angle_l	lumbar_extension	lumbar_bending	lumbar_rotation
      4.54000000	     -8.40121281	     -2.66980367	     10.92728355	     -1.74856711	     -0.01921864	     -0.27215009	     31.45061151	     -1.85002504	     -8.03400724	     -9.66163131	     12.91517321	     14.04402573	    -36.73236591	     -5.65524801	     -0.95909914	     18.80966783	    -15.91649369	      4.46159529	     -0.29998941	     14.59764212	      4.02966652	      0.80088128	    -10.77348888
      4.54500000	     -8.60211264	     -2.78649235	     10.98540871	     -1.74187466	     -0.02005677	     -0.27149300	     31.61884363	     -1.76257960	     -8.53601360	    -10.27804076	     12.72763947	     14.24960353	    -36.68144962	     -5.45990568	     -1.13300559	     18.55504001	    -16.60556530	      4.28374592	      0.41892914	     14.88922476	      4.46321517	      0.86953380	    -10.80316488
      4.55000000	     -8.70880370	     -2.95191375	     10.99541794	     -1.73511178	     -0.02074574	     -0.27077261	     31.67531475	     -1.57214005	     -8.89970707	    -10.83616239	     12.39182592	     14.29029024	    -36.61502291	     -5.37680943	     -1.38312405	     18.28388919	    -17.25090502	      3.98823036	      1.06016457	     15.34816022	      4.81164354	      1.02040768	    -10.77101964
      4.55500000	     -8.82470725	     -3.14637854	     10.98076327	     -1.72835294	     -0.02138036	     -0.26995524	     31.75048994	     -1.33240139	     -9.14979104	    -11.37422916	     11.94672363	     14.24597671	    -36.43587794	     -5.23901148	     -1.67320262	     17.84791710	    -17.92849510	      3.56359049	      1.74401399	     16.11080086	      5.17093438	      1.18817223	    -10.76857016
      4.56000000	     -8.95102645	     -3.38226923	     10.87293051	     -1.72153655	     -0.02195341	     -0.26902532	     31.84159085	     -0.98524574	     -9.15910756	    -11.86142627	     11.24678153	     14.02247957	    -35.78632621	     -5.11328249	     -2.00851879	     17.40672055	    -18.51702561	      2.79189153	      2.15945762	     17.60402599	      5.55582577	      1.41984179	    -10.59547407
      4.56500000	     -9.02820535	     -3.70437360	     10.86387519	     -1.71479038	     -0.02238089	     -0.26824839	     31.89573493	     -0.61056331	     -9.35852469	    -12.36544046	     10.72962440	     13.90650811	    -35.68651041	     -4.93959090	     -2.43870216	     17.02168273	    -19.29589117	      2.40817730	      2.97881136	     18.05234994	      5.89695494	      1.74632558	    -10.55994082
      4.57000000	     -9.16002358	     -4.03260229	     10.73712662	     -1.70804753	     -0.02279643	     -0.26727341	     32.02880132	     -0.14647133	     -9.19083404	    -12.86800255	     10.11197140	     13.57548730	    -35.51253406	     -4.68038468	     -2.87915369	     16.35699198	    -20.09029691	      1.83911241	      3.81805377	     18.89688399	      6.29129602	      2.07649138	    -10.46876648
      4.57500000	     -9.28005887	     -4.38765255	     10.54336266	     -1.70128858	     -0.02310710	     -0.26622433	     32.15693361	      0.41002063	     -8.81261059	    -13.35544564	      9.35433896	     13.06030557	    -35.05808357	     -4.45313276	     -3.35022312	     15.74857335	    -20.80156751	      0.88540372	      4.34767853	     20.47998441	      6.67413772	      2.45956198	    -10.22524637
      4.58000000	     -9.36296542	     -4.80192815	     10.44077126	     -1.69457588	     -0.02330660	     -0.26530165	     32.26263967	      0.97493149	     -8.59574163	    -13.89200912	      8.83817500	     12.67638473	    -35.06135728	     -4.14713634	     -3.90513394	     15.05279240	    -21.72568161	      0.28691031	      5.37988806	     21.12973388	      7.02596150	      2.89797978	    -10.14792125
      4.58500000	     -9.47307826	     -5.20960396	     10.23366104	     -1.68784326	     -0.02347337	     -0.26422789	     32.39895951	      1.62681519	     -8.03364268	    -14.42216822	      8.28480793	     12.01922183	    -35.17787590	     -3.81026252	     -4.45996459	     14.23485021	    -22.64500813	     -0.51697343	      6.35195933	     22.07475424	      7.39925472	      3.34244892	     -9.95542993
      4.59000000	     -9.55857315	     -5.62292554	     10.02422495	     -1.68109184	     -0.02354402	     -0.26313936	     32.50566046	      2.30889105	     -7.40568636	    -14.96436983	      7.80392122	     11.31499699	    -35.40187602	     -3.47295447	     -5.04294353	     13.37617710	    -23.58210806	     -1.47440125	      7.31565827	     23.15257131	      7.74410741	      3.79426647	     -9.76340210
      4.59500000	     -9.59526835	     -6.02697651	      9.78821105	     -1.67427322	     -0.02348316	     -0.26208744	     32.54193745	      3.01441523	     -6.72153854	    -15.50769894	      7.48995499	     10.64007487	    -35.97680239	     -3.21222458	     -5.63777180	     12.50922582	    -24.39821288	     -2.96013845	      7.94022075	     25.28266714	      8.04081795	      4.26283480	     -9.57355277
      4.60000000	     -9.66141769	     -6.44750632	      9.56894692	     -1.66742895	     -0.02343941	     -0.26106971	     32.59540951	      3.73054686	     -6.07021966	    -16.03418893	      7.16019306	      9.93297236	    -36.31738097	     -2.82761286	     -6.25730609	     11.58412646	    -25.47039034	     -3.93906391	      9.11143352	     25.80042636	      8.37914697	      4.74542882	     -9.40496203
      4.60500000	     -9.65169208	     -6.78694061	      9.33614349	     -1.66062631	     -0.02326143	     -0.25996490	     32.52784829	      4.43350452	     -5.17658013	    -16.53601088	      7.05086212	      9.01550459	    -37.34520626	     -2.54841574	     -6.82283173	     10.65649125	    -26.40262091	     -5.57704230	      9.79087794	     27.59904437	      8.59696386	      5.14540188	     -9.19414875
      4.61000000	     -9.66155879	     -7.13519233	      9.11157712	     -1.65370096	     -0.02309579	     -0.25890345	     32.44717111	      5.13034933	     -4.37699422	    -17.00965510	      7.00823520	      8.22985983	    -38.16367411	     -2.20397716	     -7.41849318	      9.68964530	    -27.45938650	     -6.98917651	     10.80473613	     28.54799335	      8.86452505	      5.54962065	     -9.07326300
      4.61500000	     -9.62463835	     -7.43847271	      8.90464807	     -1.64682815	     -0.02284149	     -0.25787087	     32.28276546	      5.78259452	     -3.64648532	    -17.44605426	      7.04410906	      7.49822424	    -39.02504261	     -1.88894050	     -7.98506733	      8.76706905	    -28.52212937	     -8.57834377	     11.72699129	     29.59283859	      9.05947146	      5.91716496	     -8.93076149
      4.62000000	     -9.58850537	     -7.71844177	      8.69528406	     -1.63999855	     -0.02258105	     -0.25686017	     32.10649650	      6.38700402	     -3.12626846	    -17.87051882	      7.05431680	      6.99052363	    -39.38057813	     -1.52853898	     -8.53789658	      7.87026502	    -29.69117871	    -10.04160840	     12.81937163	     30.01424552	      9.23952031	      6.25891381	     -8.74474098
      4.62500000	     -9.46118786	     -7.93855137	      8.53783336	     -1.63321050	     -0.02214248	     -0.25590041	     31.74887552	      6.95545845	     -2.43469561	    -18.18254172	      7.30772580	      6.27910649	    -40.63436288	     -1.28512017	     -9.03636992	      7.09851830	    -30.69570563	    -12.15213536	     13.28764690	     31.62782745	      9.30556381	      6.54766554	     -8.63102140
      4.63000000	     -9.43465760	     -8.14414357	      8.36918998	     -1.62646545	     -0.02184300	     -0.25488999	     31.47600363	      7.48033156	     -1.84766492	    -18.45841770	      7.43412488	      5.71801983	    -41.05080461	     -0.86008739	     -9.51624392	      6.36344073	    -31.91453329	    -13.76052100	     14.17913226	     31.81934513	      9.47194495	      6.79270394	     -8.52788092
      4.63500000	     -9.38375938	     -8.38401757	      8.18922224	     -1.61968261	     -0.02146153	     -0.25397489	     31.12700912	      8.02069670	     -1.40444772	    -18.64021027	      7.56142589	      5.31737652	    -41.36518329	     -0.45614392	    -10.01928092	      5.69979520	    -33.11519946	    -15.50526852	     14.75346588	     31.98398628	      9.62521945	      7.10154195	     -8.40415525
      4.64000000	     -9.30129409	     -8.53117146	      8.06154755	     -1.61319048	     -0.02104684	     -0.25298624	     30.71344774	      8.46740074	     -0.87409178	    -18.77832115	      7.79418006	      4.82926445	    -41.87832466	     -0.02988491	    -10.43202655	      5.14084219	    -34.33694886	    -17.35255304	     15.18948626	     32.43211583	      9.67668291	      7.28515057	     -8.33612689
      4.64500000	     -9.22946576	     -8.72496037	      7.99960712	     -1.60668038	     -0.02061888	     -0.25226638	     30.28938700	      8.85929403	     -0.73685664	    -18.86595242	      8.08627340	      4.71127505	    -41.95290957	      0.46714255	    -10.85349489	      4.72907296	    -35.64042308	    -19.04747582	     15.35928563	     32.22823518	      9.77144379	      7.52934117	     -8.31627485
      4.65000000	     -9.21312525	     -8.87551273	      7.87016832	     -1.60026279	     -0.02020398	     -0.25127021	     29.87104582	      9.27393842	     -0.33327249	    -18.86227877	      8.34161292	      4.33641828	    -42.32976125	      1.01822226	    -11.22917926	      4.34739329	    -36.90530456	    -20.81463349	     15.45319736	     32.28158363	      9.89154069	      7.70260510	     -8.21076550
      4.65500000	     -9.13914925	     -9.07332213	      7.81554684	     -1.59402679	     -0.01976191	     -0.25048835	     29.40086338	      9.65004624	     -0.26616621	    -18.84126364	      8.66589089	      4.32569840	    -42.35748375	      1.60018042	    -11.63830647	      4.06172009	    -38.27553523	    -22.36483600	     15.36018256	     31.97317523	      9.93379976	      7.94155914	     -8.19999979
      4.66000000	     -9.09560177	     -9.26176286	      7.76175060	     -1.58788100	     -0.01931656	     -0.24966653	     28.93162634	     10.01530143	     -0.16290434	    -18.75496210	      8.97285573	      4.26196142	    -42.40972449	      2.24742514	    -12.01307351	      3.85432659	    -39.65620158	    -23.86873568	     15.05091303	     31.61776881	      9.99503099	      8.15806773	     -8.16812473
      4.66500000	     -9.05554552	     -9.45912463	      7.71730510	     -1.58178944	     -0.01888128	     -0.24878939	     28.44830401	     10.38239891	     -0.10845216	    -18.62539270	      9.31052819	      4.22652989	    -42.43385656	      2.93589296	    -12.39278580	      3.68200088	    -41.05430375	    -25.25779611	     14.59894628	     31.22560458	     10.05666392	      8.36301928	     -8.13107258
